<mxfile host="65bd71144e">
    <diagram id="rqX9WU8iUnQ9k1TYlgNl" name="ページ1">
        <mxGraphModel dx="965" dy="482" grid="0" gridSize="10" guides="1" tooltips="1" connect="1" arrows="1" fold="1" page="1" pageScale="1" pageWidth="827" pageHeight="1169" background="#ffffff" math="0" shadow="0">
            <root>
                <mxCell id="0"/>
                <mxCell id="1" parent="0"/>
                <mxCell id="2" value="" style="rounded=0;whiteSpace=wrap;html=1;fillColor=#FFFFFF;strokeColor=#000000;" vertex="1" parent="1">
                    <mxGeometry x="50" y="70" width="380" height="220" as="geometry"/>
                </mxCell>
                <mxCell id="3" value="" style="rounded=0;whiteSpace=wrap;html=1;fillColor=#FFFFFF;strokeColor=#000000;" vertex="1" parent="1">
                    <mxGeometry x="600" y="70" width="380" height="220" as="geometry"/>
                </mxCell>
                <mxCell id="4" value="&amp;nbsp;Nogizaka Typing&amp;nbsp; &amp;nbsp; &amp;nbsp; &amp;nbsp; &amp;nbsp; &amp;nbsp; &amp;nbsp; &amp;nbsp; &amp;nbsp; &amp;nbsp; &amp;nbsp; &amp;nbsp; &amp;nbsp; &amp;nbsp; &amp;nbsp; &amp;nbsp; &amp;nbsp; &amp;nbsp; &amp;nbsp; &amp;nbsp; &amp;nbsp; &amp;nbsp; &amp;nbsp; &amp;nbsp; &amp;nbsp; &amp;nbsp; &amp;nbsp; &amp;nbsp; &amp;nbsp; Sign in&amp;nbsp; &amp;nbsp;Sign up" style="rounded=0;whiteSpace=wrap;html=1;strokeColor=#000000;align=left;container=1;" vertex="1" parent="1">
                    <mxGeometry x="50" y="70" width="380" height="30" as="geometry"/>
                </mxCell>
                <mxCell id="5" value="" style="shape=image;verticalLabelPosition=bottom;labelBackgroundColor=default;verticalAlign=top;aspect=fixed;imageAspect=0;image=https://memorize-fifth-generation.vercel.app/image/fifth/aruno.jpeg;" vertex="1" parent="1">
                    <mxGeometry x="193.56" y="120" width="92.88" height="140" as="geometry"/>
                </mxCell>
                <mxCell id="6" value="Play" style="rounded=0;whiteSpace=wrap;html=1;strokeColor=#000000;align=center;fillColor=#E6E6E6;" vertex="1" parent="1">
                    <mxGeometry x="217.5" y="263" width="45" height="20" as="geometry"/>
                </mxCell>
                <mxCell id="7" value="&amp;nbsp;Nogizaka Typing&amp;nbsp; &amp;nbsp; &amp;nbsp; &amp;nbsp; &amp;nbsp; &amp;nbsp; &amp;nbsp; &amp;nbsp; &amp;nbsp; &amp;nbsp; &amp;nbsp; &amp;nbsp; &amp;nbsp; &amp;nbsp; &amp;nbsp; &amp;nbsp; &amp;nbsp; &amp;nbsp; &amp;nbsp; &amp;nbsp; &amp;nbsp; &amp;nbsp; &amp;nbsp; &amp;nbsp; &amp;nbsp; &amp;nbsp; &amp;nbsp; &amp;nbsp; &amp;nbsp; &amp;nbsp; &amp;nbsp; &amp;nbsp; &amp;nbsp; &amp;nbsp; &amp;nbsp; &amp;nbsp; &amp;nbsp; &amp;nbsp; Login" style="rounded=0;whiteSpace=wrap;html=1;strokeColor=#000000;align=left;container=1;" vertex="1" collapsed="1" parent="1">
                    <mxGeometry x="600" y="70" width="380" height="30" as="geometry">
                        <mxRectangle x="500" y="70" width="380" height="30" as="alternateBounds"/>
                    </mxGeometry>
                </mxCell>
                <mxCell id="8" value="" style="rounded=0;whiteSpace=wrap;html=1;fillColor=#FFFFFF;strokeColor=#000000;" vertex="1" parent="1">
                    <mxGeometry x="50" y="430" width="380" height="220" as="geometry"/>
                </mxCell>
                <mxCell id="9" value="&amp;nbsp;Nogizaka Typing&amp;nbsp; &amp;nbsp; &amp;nbsp; &amp;nbsp; &amp;nbsp; &amp;nbsp; &amp;nbsp; &amp;nbsp; &amp;nbsp; &amp;nbsp; &amp;nbsp; &amp;nbsp; &amp;nbsp; &amp;nbsp; &amp;nbsp; &amp;nbsp; &amp;nbsp; &amp;nbsp; &amp;nbsp; &amp;nbsp; &amp;nbsp; &amp;nbsp; &amp;nbsp; &amp;nbsp; &amp;nbsp; &amp;nbsp; &amp;nbsp; &amp;nbsp; &amp;nbsp; &amp;nbsp; &amp;nbsp; &amp;nbsp; &amp;nbsp;[User name]" style="rounded=0;whiteSpace=wrap;html=1;strokeColor=#000000;align=left;container=1;" vertex="1" collapsed="1" parent="1">
                    <mxGeometry x="50" y="430" width="380" height="30" as="geometry">
                        <mxRectangle x="500" y="70" width="380" height="30" as="alternateBounds"/>
                    </mxGeometry>
                </mxCell>
                <mxCell id="10" value="" style="shape=image;verticalLabelPosition=bottom;labelBackgroundColor=default;verticalAlign=top;aspect=fixed;imageAspect=0;image=https://memorize-fifth-generation.vercel.app/image/fifth/aruno.jpeg;" vertex="1" parent="1">
                    <mxGeometry x="193.56" y="480" width="92.88" height="140" as="geometry"/>
                </mxCell>
                <mxCell id="11" value="Play" style="rounded=0;whiteSpace=wrap;html=1;align=center;" vertex="1" parent="1">
                    <mxGeometry x="217.5" y="623" width="45" height="20" as="geometry"/>
                </mxCell>
                <mxCell id="12" value="" style="endArrow=classic;html=1;entryX=1;entryY=0;entryDx=0;entryDy=0;exitX=0;exitY=1;exitDx=0;exitDy=0;strokeColor=#000000;strokeWidth=2;" edge="1" parent="1" source="3" target="9">
                    <mxGeometry width="50" height="50" relative="1" as="geometry">
                        <mxPoint x="420" y="330" as="sourcePoint"/>
                        <mxPoint x="470" y="280" as="targetPoint"/>
                    </mxGeometry>
                </mxCell>
                <mxCell id="13" value="" style="endArrow=classic;html=1;entryX=0;entryY=0.5;entryDx=0;entryDy=0;exitX=1;exitY=0.5;exitDx=0;exitDy=0;strokeColor=#000000;strokeWidth=2;" edge="1" parent="1">
                    <mxGeometry width="50" height="50" relative="1" as="geometry">
                        <mxPoint x="430" y="178" as="sourcePoint"/>
                        <mxPoint x="600" y="178" as="targetPoint"/>
                    </mxGeometry>
                </mxCell>
                <mxCell id="14" value="" style="rounded=0;whiteSpace=wrap;html=1;fillColor=#FFFFFF;strokeColor=#000000;" vertex="1" parent="1">
                    <mxGeometry x="600" y="430" width="380" height="220" as="geometry"/>
                </mxCell>
                <mxCell id="15" value="&amp;nbsp;Nogizaka Typing&amp;nbsp; &amp;nbsp; &amp;nbsp; &amp;nbsp; &amp;nbsp; &amp;nbsp; &amp;nbsp; &amp;nbsp; &amp;nbsp; &amp;nbsp; &amp;nbsp; &amp;nbsp; &amp;nbsp; &amp;nbsp; &amp;nbsp; &amp;nbsp; &amp;nbsp; &amp;nbsp; &amp;nbsp; &amp;nbsp; &amp;nbsp; &amp;nbsp; &amp;nbsp; &amp;nbsp; &amp;nbsp; &amp;nbsp; &amp;nbsp; &amp;nbsp; &amp;nbsp; &amp;nbsp; &amp;nbsp; &amp;nbsp; &amp;nbsp;[User name]" style="rounded=0;whiteSpace=wrap;html=1;strokeColor=#000000;align=left;container=1;" vertex="1" collapsed="1" parent="1">
                    <mxGeometry x="600" y="430" width="380" height="30" as="geometry">
                        <mxRectangle x="500" y="70" width="380" height="30" as="alternateBounds"/>
                    </mxGeometry>
                </mxCell>
                <mxCell id="17" value="Play" style="rounded=0;whiteSpace=wrap;html=1;align=center;" vertex="1" parent="1">
                    <mxGeometry x="767.5" y="623" width="45" height="20" as="geometry"/>
                </mxCell>
                <mxCell id="18" value="&lt;font color=&quot;#000000&quot;&gt;/pages（未ログイン時）&lt;/font&gt;" style="rounded=0;whiteSpace=wrap;html=1;align=left;container=1;fillColor=none;" vertex="1" parent="1">
                    <mxGeometry x="50" y="39" width="150" height="30" as="geometry"/>
                </mxCell>
                <mxCell id="19" value="&lt;font color=&quot;#000000&quot;&gt;/pages（ログイン時/ログイン後リダイレクト）&lt;/font&gt;" style="rounded=0;whiteSpace=wrap;html=1;align=left;container=1;fillColor=none;" vertex="1" parent="1">
                    <mxGeometry x="50" y="398" width="254" height="30" as="geometry"/>
                </mxCell>
                <mxCell id="20" value="" style="endArrow=classic;html=1;entryX=0;entryY=0.5;entryDx=0;entryDy=0;strokeColor=#000000;strokeWidth=2;exitX=1;exitY=0.5;exitDx=0;exitDy=0;" edge="1" parent="1" source="8" target="14">
                    <mxGeometry width="50" height="50" relative="1" as="geometry">
                        <mxPoint x="470" y="547" as="sourcePoint"/>
                        <mxPoint x="610" y="188" as="targetPoint"/>
                    </mxGeometry>
                </mxCell>
                <mxCell id="21" value="&lt;font color=&quot;#000000&quot;&gt;Select target generations&lt;/font&gt;" style="rounded=0;whiteSpace=wrap;html=1;align=left;container=1;fillColor=none;strokeColor=none;" vertex="1" parent="1">
                    <mxGeometry x="609" y="460" width="254" height="30" as="geometry"/>
                </mxCell>
                <mxCell id="22" value="&lt;font color=&quot;#000000&quot;&gt;/pages/selectTarget&lt;/font&gt;" style="rounded=0;whiteSpace=wrap;html=1;align=left;container=1;fillColor=none;" vertex="1" parent="1">
                    <mxGeometry x="600" y="398" width="254" height="30" as="geometry"/>
                </mxCell>
                <mxCell id="23" value="" style="shape=image;verticalLabelPosition=bottom;labelBackgroundColor=default;verticalAlign=top;aspect=fixed;imageAspect=0;image=https://memorize-fifth-generation.vercel.app/image/fifth/aruno.jpeg;" vertex="1" parent="1">
                    <mxGeometry x="896" y="498" width="46.88" height="70.66" as="geometry"/>
                </mxCell>
            </root>
        </mxGraphModel>
    </diagram>
</mxfile>